<?xml version="1.0" encoding="iso-8859-1"?>
<!-- Uploaded to: SVG Repo, www.svgrepo.com, Generator: SVG Repo Mixer Tools -->
<svg version="1.1" id="Layer_1" xmlns="http://www.w3.org/2000/svg" xmlns:xlink="http://www.w3.org/1999/xlink" 
	 viewBox="0 0 512 512" xml:space="preserve">
<rect x="378.047" y="398.884" style="fill:#E7ECED;" width="59.535" height="71.442"/>
<polygon style="fill:#9DA1A4;" points="312.558,339.349 503.07,339.349 503.07,470.326 437.581,470.326 437.581,398.884 
	378.047,398.884 378.047,470.326 312.558,470.326 "/>
<g>
	<polygon style="fill:#FFD311;" points="407.814,232.186 503.07,339.349 312.558,339.349 	"/>
	<path style="fill:#FFD311;" d="M133.953,279.814c13.098,0,23.814,10.716,23.814,23.814c0,13.098-10.716,23.814-23.814,23.814
		s-23.814-10.716-23.814-23.814C110.14,290.53,120.856,279.814,133.953,279.814z"/>
</g>
<path style="fill:#00ABD5;" d="M258.977,113.116v297.674H8.93V113.116H258.977z M157.767,303.628
	c0-13.098-10.716-23.814-23.814-23.814s-23.814,10.716-23.814,23.814c0,13.098,10.716,23.814,23.814,23.814
	S157.767,316.726,157.767,303.628z"/>
<g>
	<path style="fill:#9DA1A4;" d="M8.93,410.791h250.047v47.628c0,6.549-5.358,11.907-11.907,11.907H20.837
		c-6.549,0-11.907-5.358-11.907-11.907V410.791z"/>
	<path style="fill:#9DA1A4;" d="M20.837,41.674H247.07c6.549,0,11.907,5.358,11.907,11.907v59.535H8.93V53.581
		C8.93,47.033,14.288,41.674,20.837,41.674z"/>
</g>
<path style="fill:#00BDE2;" d="M8.93,130.977v279.814h250.047v-29.767L8.93,130.977z M133.953,327.442
	c-13.098,0-23.814-10.716-23.814-23.814c0-13.098,10.716-23.814,23.814-23.814s23.814,10.716,23.814,23.814
	C157.767,316.726,147.051,327.442,133.953,327.442z"/>
<path d="M247.07,32.744H20.837C9.348,32.744,0,42.092,0,53.581v404.837c0,11.489,9.348,20.837,20.837,20.837H247.07
	c11.489,0,20.837-9.348,20.837-20.837V53.581C267.907,42.092,258.559,32.744,247.07,32.744z M20.837,50.605H247.07
	c1.613,0,2.977,1.363,2.977,2.977v50.605H17.86V53.581C17.86,51.968,19.224,50.605,20.837,50.605z M250.047,122.047V401.86H17.86
	V122.047H250.047z M247.07,461.395H20.837c-1.613,0-2.977-1.363-2.977-2.977v-38.698h232.186v38.698
	C250.047,460.032,248.683,461.395,247.07,461.395z"/>
<rect x="86.326" y="68.465" style="fill:#FFFFFF;" width="95.256" height="17.86"/>
<rect x="116.093" y="431.628" width="35.721" height="17.86"/>
<g>
	<path style="fill:#FFFFFF;" d="M70.974,235.039c0.58-1.697,14.769-41.551,62.98-41.551c48.473,0,64.461,40.157,65.105,41.834
		l16.723-6.273c-0.818-2.181-20.736-53.422-81.828-53.422c-31.973,0-51.992,14.525-63.157,26.712
		c-12.059,13.162-16.572,26.469-16.758,27.029L70.974,235.039z"/>
	<path style="fill:#FFFFFF;" d="M133.953,241.116c20.962,0,28.047,17.348,28.311,18.02l16.723-6.273
		c-0.454-1.209-11.489-29.608-45.035-29.608c-33.781,0-43.78,28.686-44.188,29.907l16.935,5.675
		C106.76,258.659,112.881,241.116,133.953,241.116z"/>
</g>
<path d="M133.953,270.884c-18.056,0-32.744,14.69-32.744,32.744s14.688,32.744,32.744,32.744s32.744-14.69,32.744-32.744
	S152.009,270.884,133.953,270.884z M133.953,318.512c-8.207,0-14.884-6.676-14.884-14.884s6.676-14.884,14.884-14.884
	s14.884,6.676,14.884,14.884S142.161,318.512,133.953,318.512z"/>
<rect x="32.744" y="139.907" width="23.814" height="17.86"/>
<rect x="211.349" y="139.907" width="23.814" height="17.86"/>
<rect x="211.349" y="366.14" style="fill:#FFFFFF;" width="23.814" height="17.86"/>
<rect x="211.349" y="330.419" width="23.814" height="17.86"/>
<rect x="175.628" y="366.14" width="23.814" height="17.86"/>
<rect x="32.744" y="366.14" style="fill:#FFFFFF;" width="23.814" height="17.86"/>
<rect x="32.744" y="330.419" width="23.814" height="17.86"/>
<rect x="68.465" y="366.14" width="23.814" height="17.86"/>
<path d="M407.814,218.744L303.628,335.953v143.303H512V335.953L407.814,218.744z M483.184,330.419h-150.74l75.37-84.791
	L483.184,330.419z M428.651,461.395h-41.674v-53.581h41.674V461.395z M446.512,461.395v-53.581h14.884v-17.86H354.233v17.86h14.884
	v53.581h-47.628V348.279H494.14v113.116H446.512z"/>
<rect x="395.907" y="288.744" width="23.814" height="17.86"/>
<rect x="389.953" y="360.186" style="fill:#FFFFFF;" width="35.721" height="17.86"/>
<path d="M405.79,80.372c48.474,0,64.461,40.157,65.105,41.834l16.723-6.273c-0.819-2.181-20.737-53.422-81.828-53.422
	c-31.907,0-51.93,14.523-63.108,26.707c-12.07,13.155-16.614,26.455-16.801,27.015l16.923,5.709
	C343.389,120.245,357.681,80.372,405.79,80.372z"/>
<path d="M434.221,146.02l16.723-6.273c-0.454-1.209-11.49-29.608-45.155-29.608c-33.781,0-43.78,28.686-44.188,29.907l16.935,5.675
	c0.06-0.177,6.181-17.721,27.254-17.721C426.866,128,433.956,145.35,434.221,146.02z"/>
<rect x="395.907" y="163.721" width="23.814" height="17.86"/>
</svg>